<?xml version="1.0" encoding="UTF-8"?>
<svg id="Layer_1" xmlns="http://www.w3.org/2000/svg" version="1.1" viewBox="0 0 2400 80">
  <!-- Generator: Adobe Illustrator 29.0.1, SVG Export Plug-In . SVG Version: 2.1.0 Build 192)  -->
  <defs>
    <style>
      .st0 {
        fill: none;
        stroke: #F23B5C;
        stroke-width: 3px;
      }
    </style>
  </defs>
  <path class="st0" d="M.3,45.1c.1,0,.2,0,.3,0,1.5-.3,3.7-.8,6.6-1.4,5.9-1.2,14.7-2.9,26.4-4.9,23.4-4,58.5-9.4,105-14.8C231.8,13.2,371,2.5,555.2,2.5c143,0,289.7,16.8,444.2,34.5,44.6,5.1,89.8,10.3,135.8,15.2,205.3,21.8,425.6,37.4,669.6,12.9,244.2-24.5,393.5-32.7,481.7-34.7,44.1-1,73-.5,90.8.3,8.9.4,15.1.8,19,1.2,1.7.2,3,.3,3.9.4"/>
</svg>