<?xml version="1.0" encoding="UTF-8"?>
<svg version="1.1" xmlns="http://www.w3.org/2000/svg" width="1254" height="468">
<path d="M0 0 C413.82 0 827.64 0 1254 0 C1254 154.44 1254 308.88 1254 468 C840.18 468 426.36 468 0 468 C0 313.56 0 159.12 0 0 Z " fill="#FEFEFE" transform="translate(0,0)"/>
<path d="M0 0 C6.71353251 6.31517282 12.58060887 13.942892 13.23828125 23.44140625 C13.5424265 34.53392147 12.33263671 42.30461356 5.0625 51.125 C-4.36502682 60.91983306 -16.78691638 65.98289878 -29.09985352 71.16552734 C-31.10285757 72.04517116 -33.05116114 73.00677147 -35 74 C-34.4416748 74.94697754 -34.4416748 74.94697754 -33.87207031 75.91308594 C-29.02795921 84.76484873 -26.67139022 93.77220749 -24.38476562 103.54345703 C-23.75342375 106.23540166 -23.09735532 108.92038783 -22.4375 111.60546875 C-19.22232703 124.89930897 -16.61712694 138.32553121 -16.5625 152.0625 C-16.55863281 152.77075928 -16.55476562 153.47901855 -16.55078125 154.20874023 C-16.679821 160.000071 -17.89812535 163.00067222 -22 167 C-21.43152344 167.37769531 -20.86304688 167.75539062 -20.27734375 168.14453125 C-13.13560484 173.23555381 -7.80712384 179.57862848 -5 188 C-4.23344547 196.63586754 -3.58877292 204.3061294 -9.36328125 211.359375 C-12.92124316 214.92582847 -15.3131817 216.13478311 -20.3125 216.1875 C-21.529375 216.125625 -22.74625 216.06375 -24 216 C-24.03867187 214.71029297 -24.03867187 214.71029297 -24.078125 213.39453125 C-24.63331369 201.82389416 -26.12839156 189.33855043 -35 181 C-44.92410074 173.47966068 -55.6504213 170.70081264 -68 172 C-78.67127672 174.32041275 -87.3294869 179.01468293 -93.80859375 187.875 C-98.2111177 195.72737058 -98.41284721 205.48780792 -96.20703125 214.09375 C-94.63262581 218.19564922 -93.09920286 220.90967737 -90 224 C-90 224.66 -90 225.32 -90 226 C-89.41863281 226.26554688 -88.83726562 226.53109375 -88.23828125 226.8046875 C-85.92956017 228.03761708 -84.18081284 229.43441909 -82.1875 231.125 C-72.53265831 238.6931501 -61.10145835 243.46424243 -50 248.5 C-23.64122478 260.46561794 -23.64122478 260.46561794 -13 270 C-12.35546875 270.54011719 -11.7109375 271.08023437 -11.046875 271.63671875 C-5.04655029 277.02396681 0.43495948 285.9125824 1.19287109 294.07788086 C1.71138132 309.43992488 0.58426288 320.62848492 -9.76953125 332.75 C-19.0978369 342.15998959 -34.45010183 350.61455041 -47.88671875 351.10546875 C-48.93279297 351.05326172 -48.93279297 351.05326172 -50 351 C-50 351.66 -50 352.32 -50 353 C-8.02802125 352.89540911 33.9439411 352.7856357 75.91588788 352.66888306 C80.86775327 352.655113 85.81961879 352.64138597 90.77148438 352.62768555 C91.75733801 352.62495724 92.74319164 352.62222894 93.75891963 352.61941796 C109.73499775 352.57530761 125.71108295 352.53468614 141.68717346 352.49534739 C158.07238342 352.45492383 174.45758024 352.41076641 190.84277081 352.36312145 C200.95845171 352.33382534 211.0741316 352.30746375 221.18982962 352.28482103 C228.12057293 352.26902881 235.05130015 352.24961944 241.98202559 352.22733159 C245.98444696 352.21456847 249.98685593 352.20343277 253.98929214 352.19658089 C257.65089364 352.19027739 261.31245238 352.17944927 264.97403041 352.1649667 C266.93152762 352.15841706 268.8890393 352.15675923 270.84654689 352.15525442 C272.00403162 352.14977998 273.16151636 352.14430554 274.35407639 352.1386652 C275.35501918 352.13600716 276.35596197 352.13334911 277.38723636 352.13061053 C279.76022272 352.01198633 281.71993235 351.61664421 284 351 C286.36945898 350.89918181 288.74156336 350.85638653 291.11314392 350.84609985 C291.83017803 350.8417176 292.54721214 350.83733535 293.28597456 350.8328203 C295.68926895 350.81946347 298.0925267 350.81326035 300.49584961 350.80712891 C302.21916874 350.7992252 303.94248624 350.79095608 305.665802 350.78234863 C311.32796656 350.75614985 316.99013841 350.74081869 322.65234375 350.7265625 C324.60473701 350.7212011 326.55713022 350.71582359 328.50952339 350.71043015 C336.63593245 350.68880062 344.76233955 350.67006719 352.8887701 350.65880775 C364.51506175 350.6425911 376.14101801 350.60946965 387.76718324 350.55240691 C395.95168806 350.51361429 404.13610355 350.49416379 412.32069784 350.48888719 C417.20331518 350.48524523 422.08557463 350.47334814 426.96809196 350.44078445 C431.56879835 350.41054105 436.16893338 350.40444952 440.76971817 350.41616821 C442.44940517 350.41638762 444.12911994 350.40819353 445.80871391 350.39051437 C456.66500258 350.2825543 468.71943071 350.53987886 477.125 358.5625 C478.053125 359.7690625 478.053125 359.7690625 479 361 C479.78310547 361.87398438 479.78310547 361.87398438 480.58203125 362.765625 C483.47551213 367.32504942 482.72175855 372.83245138 482 378 C479.49383991 384.64378126 474.73707829 388.60262782 468.5859375 391.890625 C464.69200591 393.56113341 461.24911718 394.76896337 457 394 C454.96728013 392.6962268 453.43330119 391.31891421 451.80078125 389.54296875 C447.5865374 385.93206567 442.45584226 385.74564479 437.12207031 385.71289062 C436.46070068 385.70605759 435.79933105 385.69922455 435.11791992 385.69218445 C433.68738414 385.67865269 432.25680076 385.6695634 430.82621002 385.66447449 C428.53328961 385.65608597 426.24074909 385.63547568 423.94793701 385.61193848 C419.04868285 385.56384816 414.14938775 385.53102559 409.25 385.5 C372.70866373 385.26489276 372.70866373 385.26489276 357.42578125 384.10546875 C356.43012146 384.03046143 355.43446167 383.9554541 354.40863037 383.87817383 C345.73909602 383.134737 337.27597859 381.53669846 328.77734375 379.70703125 C322.8175741 378.61424537 317.32768857 378.83615572 311.875 381.5625 C309.36087346 383.69404207 307.60087821 385.69637763 305.5625 388.25 C303.06715608 391.17311716 302.34279716 391.90817933 298.5 392.9375 C294.71816763 391.92450919 294.36812683 391.48983311 292.03125 388.6484375 C281.46214482 377.78405171 257.65560498 378.53097868 243.09448242 377.85351562 C242.28107466 377.81337687 241.4676669 377.77323812 240.62961042 377.73188305 C216.26634183 376.55588903 191.87074958 376.68170434 167.48544717 376.66114616 C161.36713063 376.65365178 155.2488525 376.63596306 149.13055911 376.61803395 C137.01519218 376.58268282 124.89982124 376.55421358 112.78442383 376.53173828 C111.70704217 376.52973579 111.70704217 376.52973579 110.60789522 376.52769285 C104.77861756 376.51691284 98.94933929 376.50648131 93.12006092 376.4960928 C88.00720504 376.48697183 82.89434941 376.47772086 77.78149414 376.46826172 C77.06082275 376.46693098 76.34015136 376.46560023 75.59764145 376.46422917 C63.50059825 376.44165467 51.40358544 376.4114113 39.30657357 376.37586927 C32.56016917 376.35637426 25.81380882 376.34118209 19.06737709 376.33552551 C-34.9055374 376.2886464 -34.9055374 376.2886464 -57 374 C-58.62239938 373.84301856 -60.24480982 373.68615136 -61.86723328 373.52941895 C-70.861196 372.60747141 -79.35656671 370.62004071 -88 368 C-88.66515625 367.79971191 -89.3303125 367.59942383 -90.015625 367.39306641 C-105.24676244 362.75323756 -105.24676244 362.75323756 -111 357 C-110.67 355.35 -110.34 353.7 -110 352 C-101.75 351.67 -93.5 351.34 -85 351 C-90.445 349.515 -90.445 349.515 -96 348 C-107.77533414 343.38534203 -118.75245134 336.68063648 -124.2734375 324.89453125 C-126.85480271 318.16355207 -127.11354677 310.40250402 -124.875 303.5625 C-121.82083808 299.38847871 -118.98007034 296.39407993 -113.80078125 295.36328125 C-112.87652344 295.24339844 -111.95226562 295.12351562 -111 295 C-110.70867187 295.95519531 -110.41734375 296.91039062 -110.1171875 297.89453125 C-105.31208357 313.24018448 -99.75485332 324.62064738 -84.9375 332.375 C-77.58762761 335.98440235 -70.69921765 337.35824286 -62.5625 337.25 C-61.44065308 337.23876099 -61.44065308 337.23876099 -60.29614258 337.22729492 C-49.13717653 337.00973094 -39.1307103 333.86007686 -29.625 327.875 C-22.45269108 320.01961404 -20.14438755 312.90260134 -20.36206055 302.42749023 C-20.69859777 296.46263634 -21.67609059 292.32390941 -26 288 C-26.56203125 287.37609375 -27.1240625 286.7521875 -27.703125 286.109375 C-38.25500073 275.55749927 -53.25391678 269.78257622 -66.6875 263.9375 C-81.17306932 257.62527977 -93.65262529 251.20728366 -105 240 C-105.74121094 239.319375 -106.48242188 238.63875 -107.24609375 237.9375 C-111.75315505 233.70334333 -114.78059163 229.77903919 -117 224 C-117.44666016 222.91138672 -117.44666016 222.91138672 -117.90234375 221.80078125 C-121.53186959 211.68159631 -121.53708926 200.62237379 -116.97265625 190.85546875 C-116.65167969 190.24316406 -116.33070312 189.63085938 -116 189 C-115.67 188.34 -115.34 187.68 -115 187 C-115.928125 187 -116.85625 187 -117.8125 187 C-131.03037949 184.98685603 -144.0414142 168.07841917 -151.6875 157.875 C-155.80719832 152.18277718 -159.30467636 146.18746716 -162.625 140 C-163.26441528 138.81639893 -163.26441528 138.81639893 -163.91674805 137.60888672 C-166.2931239 133.00303647 -167.60079046 129.17595812 -168 124 C-168.86882812 124.40992188 -169.73765625 124.81984375 -170.6328125 125.2421875 C-171.78523438 125.78101563 -172.93765625 126.31984375 -174.125 126.875 C-175.26195312 127.40867188 -176.39890625 127.94234375 -177.5703125 128.4921875 C-186.16280734 132.26975357 -194.27523305 133.20306638 -203.5625 133.3125 C-204.38685547 133.34150391 -205.21121094 133.37050781 -206.06054688 133.40039062 C-211.53758206 133.45730626 -214.70504822 132.72360499 -219 129 C-222.60102684 124.30386636 -223.74107552 118.82580089 -224 113 C-224.0515625 112.26265625 -224.103125 111.5253125 -224.15625 110.765625 C-224.85764267 92.88011204 -217.27313179 78.22574887 -205.56640625 65.31640625 C-176.32081875 34.71253311 -131.91474701 26.99718833 -92 20 C-92.0825 18.783125 -92.165 17.56625 -92.25 16.3125 C-92.45475563 13.2923545 -92.07429706 12.11880081 -90.44140625 9.5078125 C-87.468558 6.45410278 -84.41249573 4.58013151 -80.6875 2.5625 C-79.98399414 2.17634521 -79.28048828 1.79019043 -78.55566406 1.39233398 C-55.93943851 -10.75744208 -21.9455834 -18.02815685 0 0 Z " fill="#595B61" transform="translate(227,13)"/>
<path d="M0 0 C0 0.66 0 1.32 0 2 C41.97197875 1.89540911 83.9439411 1.7856357 125.91588788 1.66888306 C130.86775327 1.655113 135.81961879 1.64138597 140.77148438 1.62768555 C141.75733801 1.62495724 142.74319164 1.62222894 143.75891963 1.61941796 C159.73499775 1.57530761 175.71108295 1.53468614 191.68717346 1.49534739 C208.07238342 1.45492383 224.45758024 1.41076641 240.84277081 1.36312145 C250.95845171 1.33382534 261.0741316 1.30746375 271.18982962 1.28482103 C278.12057293 1.26902881 285.05130015 1.24961944 291.98202559 1.22733159 C295.98444696 1.21456847 299.98685593 1.20343277 303.98929214 1.19658089 C307.65089364 1.19027739 311.31245238 1.17944927 314.97403041 1.1649667 C316.93152762 1.15841706 318.8890393 1.15675923 320.84654689 1.15525442 C322.00403162 1.14977998 323.16151636 1.14430554 324.35407639 1.1386652 C325.85549057 1.13467814 325.85549057 1.13467814 327.38723636 1.13061053 C329.76022272 1.01198633 331.71993235 0.61664421 334 0 C336.36945898 -0.10081819 338.74156336 -0.14361347 341.11314392 -0.15390015 C341.83017803 -0.1582824 342.54721214 -0.16266465 343.28597456 -0.1671797 C345.68926895 -0.18053653 348.0925267 -0.18673965 350.49584961 -0.19287109 C352.21916874 -0.2007748 353.94248624 -0.20904392 355.665802 -0.21765137 C361.32796656 -0.24385015 366.99013841 -0.25918131 372.65234375 -0.2734375 C374.60473701 -0.2787989 376.55713022 -0.28417641 378.50952339 -0.28956985 C386.63593245 -0.31119938 394.76233955 -0.32993281 402.8887701 -0.34119225 C414.51506175 -0.3574089 426.14101801 -0.39053035 437.76718324 -0.44759309 C445.95168806 -0.48638571 454.13610355 -0.50583621 462.32069784 -0.51111281 C467.20331518 -0.51475477 472.08557463 -0.52665186 476.96809196 -0.55921555 C481.56879835 -0.58945895 486.16893338 -0.59555048 490.76971817 -0.58383179 C492.44940517 -0.58361238 494.12911994 -0.59180647 495.80871391 -0.60948563 C506.66500258 -0.7174457 518.71943071 -0.46012114 527.125 7.5625 C528.053125 8.7690625 528.053125 8.7690625 529 10 C529.78310547 10.87398438 529.78310547 10.87398438 530.58203125 11.765625 C533.47551213 16.32504942 532.72175855 21.83245138 532 27 C529.49383991 33.64378126 524.73707829 37.60262782 518.5859375 40.890625 C514.69200591 42.56113341 511.24911718 43.76896337 507 43 C504.96728013 41.6962268 503.43330119 40.31891421 501.80078125 38.54296875 C497.5865374 34.93206567 492.45584226 34.74564479 487.12207031 34.71289062 C486.46070068 34.70605759 485.79933105 34.69922455 485.11791992 34.69218445 C483.68738414 34.67865269 482.25680076 34.6695634 480.82621002 34.66447449 C478.53328961 34.65608597 476.24074909 34.63547568 473.94793701 34.61193848 C469.04868285 34.56384816 464.14938775 34.53102559 459.25 34.5 C422.70866373 34.26489276 422.70866373 34.26489276 407.42578125 33.10546875 C406.43012146 33.03046143 405.43446167 32.9554541 404.40863037 32.87817383 C395.73909602 32.134737 387.27597859 30.53669846 378.77734375 28.70703125 C372.8175741 27.61424537 367.32768857 27.83615572 361.875 30.5625 C359.36087346 32.69404207 357.60087821 34.69637763 355.5625 37.25 C353.06715608 40.17311716 352.34279716 40.90817933 348.5 41.9375 C344.71816763 40.92450919 344.36812683 40.48983311 342.03125 37.6484375 C331.46214482 26.78405171 307.65560498 27.53097868 293.09448242 26.85351562 C292.28107466 26.81337687 291.4676669 26.77323812 290.62961042 26.73188305 C266.26634183 25.55588903 241.87074958 25.68170434 217.48544717 25.66114616 C211.36713063 25.65365178 205.2488525 25.63596306 199.13055911 25.61803395 C187.01519218 25.58268282 174.89982124 25.55421358 162.78442383 25.53173828 C162.06616939 25.53040329 161.34791495 25.5290683 160.60789522 25.52769285 C154.77861756 25.51691284 148.94933929 25.50648131 143.12006092 25.4960928 C138.00720504 25.48697183 132.89434941 25.47772086 127.78149414 25.46826172 C127.06082275 25.46693098 126.34015136 25.46560023 125.59764145 25.46422917 C113.50059825 25.44165467 101.40358544 25.4114113 89.30657357 25.37586927 C82.56016917 25.35637426 75.81380882 25.34118209 69.06737709 25.33552551 C15.0944626 25.2886464 15.0944626 25.2886464 -7 23 C-8.62239938 22.84301856 -10.24480982 22.68615136 -11.86723328 22.52941895 C-20.861196 21.60747141 -29.35656671 19.62004071 -38 17 C-38.66515625 16.79971191 -39.3303125 16.59942383 -40.015625 16.39306641 C-55.24676244 11.75323756 -55.24676244 11.75323756 -61 6 C-60.625 3.375 -60.625 3.375 -60 1 C-52.90200467 0.68719367 -45.8036064 0.3852168 -38.70483398 0.09057617 C-36.29261983 -0.01080182 -33.88050649 -0.11461017 -31.46850586 -0.22094727 C-27.99096289 -0.37382996 -24.51314478 -0.51781594 -21.03515625 -0.66015625 C-19.96604507 -0.70906509 -18.8969339 -0.75797394 -17.79542542 -0.80836487 C-11.72835935 -1.04689663 -6.01619513 -0.83672573 0 0 Z " fill="#B7BABD" transform="translate(177,364)"/>
<path d="M0 0 C5.5915629 4.86911318 9.52357058 10.46200978 10.3125 17.9765625 C10.64809598 26.93278017 9.26874909 34.65910537 3.25 41.5625 C-18.12366376 60.84871465 -50.63442327 66.54912103 -78.33007812 65.19775391 C-86.69611399 64.57810421 -95.27981286 63.40161503 -103 60 C-102.5500048 57.4800269 -102.0984993 56.11819916 -100.4375 54.125 C-98.54123152 51.3218205 -98.77422514 49.31136456 -99 46 C-101.19514873 45.0406843 -101.19514873 45.0406843 -104 45 C-109.26624421 48.35124631 -112.7796738 53.27274887 -116.6484375 58.10546875 C-120.26499459 62.55707806 -124.12839769 66.77051848 -128 71 C-134.83811002 78.48035327 -134.83811002 78.48035327 -141.5625 86.0625 C-142.11421875 86.69414063 -142.6659375 87.32578125 -143.234375 87.9765625 C-144.51841297 89.44809274 -145.79923781 90.9224286 -147.078125 92.3984375 C-158.7030419 105.60857034 -171.82914566 117.84239086 -190.21337891 119.15844727 C-192.7055391 119.2767031 -195.1929499 119.33301063 -197.6875 119.375 C-198.96850586 119.43107422 -198.96850586 119.43107422 -200.27539062 119.48828125 C-202.61820285 119.52140821 -204.70844933 119.49092222 -207 119 C-209.01953125 116.7265625 -209.01953125 116.7265625 -210 114 C-210.22042969 113.39027344 -210.44085938 112.78054687 -210.66796875 112.15234375 C-212.82596675 98.16343909 -210.34813734 84.64563237 -202.2890625 72.8828125 C-176.94553875 40.96554197 -138.88749675 32.36503723 -100.8125 24.4375 C-94.68671306 23.15749307 -88.56443245 21.86395822 -82.45025635 20.52947998 C-80.82483712 20.17824043 -79.19782512 19.83428769 -77.5692749 19.49786377 C-75.31594802 19.03058346 -73.07017623 18.5364902 -70.82421875 18.03515625 C-69.55022217 17.76195557 -68.27622559 17.48875488 -66.96362305 17.20727539 C-65.98562744 16.80887451 -65.00763184 16.41047363 -64 16 C-63.01 13.525 -63.01 13.525 -62 11 C-67.28 10.67 -72.56 10.34 -78 10 C-78 9.01 -78 8.02 -78 7 C-53.20982598 -7.77875759 -26.40907958 -16.72700618 0 0 Z " fill="#FDFDFD" transform="translate(222,19)"/>
<path d="M0 0 C4.20675751 2.63172363 5.95319086 5.84635301 7.5 10.5 C8.02055172 14.31140062 7.99085063 18.05703895 7.92578125 21.8984375 C7.92271973 22.9949614 7.9196582 24.09148529 7.91650391 25.22123718 C7.90122822 28.77291273 7.85708721 32.32358269 7.8125 35.875 C7.79755362 38.315665 7.78413266 40.75633981 7.7722168 43.19702148 C7.70362113 53.95204275 7.54072294 64.70063328 7.15625 75.44921875 C7.128228 76.24898132 7.10020599 77.0487439 7.07133484 77.8727417 C6.94020748 81.48732685 6.78686291 85.09867918 6.59301758 88.71044922 C6.53782959 89.95197754 6.4826416 91.19350586 6.42578125 92.47265625 C6.36817627 93.52718994 6.31057129 94.58172363 6.2512207 95.66821289 C6.61581042 99.81823858 8.45254966 102.33616629 11.1875 105.375 C13.18129914 108.60305576 13.01315817 110.77960327 12.5 114.5 C11.05713962 116.9421748 9.56623675 118.48295936 7.5 120.5 C6.84 120.5 6.18 120.5 5.5 120.5 C6.15196682 125.71573455 7.64735891 128.01021021 11.75 131.3125 C14.86076578 133.64102643 18.03288144 135.87873062 21.203125 138.125 C21.83186523 138.57125732 22.46060547 139.01751465 23.10839844 139.47729492 C24.35128862 140.35460086 25.59922805 141.22480491 26.85253906 142.0871582 C29.7034972 144.07427442 31.54795838 145.57193757 33.5 148.5 C34.52885947 157.49904722 32.84651386 165.6660443 30.3125 174.25 C29.99297363 175.38324707 29.67344727 176.51649414 29.34423828 177.68408203 C28.41510591 180.96191932 27.46327742 184.23205398 26.5 187.5 C26.25523926 188.33176758 26.01047852 189.16353516 25.75830078 190.02050781 C24.93596347 192.80539293 24.11135821 195.58951025 23.2746582 198.37011719 C21.68435776 203.70809734 20.32425492 209.09052903 19 214.5 C17.13955973 222.09444601 15.07053683 229.59206633 12.81640625 237.078125 C11.5805601 241.18949187 10.42233546 245.32070045 9.26708984 249.45532227 C1.8954915 275.71106926 1.8954915 275.71106926 -4.5 281.5 C-6.92760735 280.54684437 -8.228746 280.00474611 -9.4855957 277.66601562 C-9.71335693 276.92029297 -9.94111816 276.17457031 -10.17578125 275.40625 C-10.44253662 274.55466309 -10.70929199 273.70307617 -10.98413086 272.82568359 C-11.25749268 271.89320801 -11.53085449 270.96073242 -11.8125 270 C-12.2602478 268.53361084 -12.2602478 268.53361084 -12.71704102 267.03759766 C-15.58638741 257.51121719 -18.13774136 247.89797246 -20.68359375 238.28125 C-24.61952747 223.47474456 -28.95308859 208.77355258 -33.24780273 194.06787109 C-33.82713595 192.08301391 -34.40480541 190.09767027 -34.98071289 188.11181641 C-36.3732821 183.31621917 -37.79297984 178.53217834 -39.26953125 173.76171875 C-45.94741631 151.92400371 -45.94741631 151.92400371 -42.6328125 144.578125 C-38.64536145 139.17896768 -32.12681473 135.48619621 -26.64453125 131.734375 C-21.80233341 128.47698112 -21.80233341 128.47698112 -19.8125 123.3125 C-19.709375 122.384375 -19.60625 121.45625 -19.5 120.5 C-20.098125 120.29375 -20.69625 120.0875 -21.3125 119.875 C-24.41439253 117.92523898 -25.19763021 115.88616146 -26.5 112.5 C-27.22102065 107.65886133 -25.88688425 105.44719567 -23.38708496 101.37419128 C-20.36275798 94.98453583 -22.87714312 84.51073081 -23.42597961 77.69228172 C-23.59750096 75.55881241 -23.76435259 73.42502073 -23.93005371 71.29109192 C-24.40163226 65.22993674 -24.88224809 59.16950306 -25.36376953 53.10913086 C-25.65944694 49.38375019 -25.95052169 45.65803036 -26.23908997 41.93209267 C-26.40167034 39.85157397 -26.56958175 37.77153168 -26.7376709 35.69145203 C-28.76684729 9.51354556 -28.76684729 9.51354556 -22 1.5625 C-16.22474484 -3.20208551 -6.71462107 -2.87046889 0 0 Z " fill="#56585E" transform="translate(1216.5,183.5)"/>
<path d="M0 0 C5.50812057 4.1756621 9.68920249 9.30544697 12.29296875 15.73828125 C12.29296875 16.39828125 12.29296875 17.05828125 12.29296875 17.73828125 C12.95296875 17.73828125 13.61296875 17.73828125 14.29296875 17.73828125 C14.57140625 16.74828125 14.57140625 16.74828125 14.85546875 15.73828125 C19.35767013 6.34238271 28.66999395 -1.48126436 38.29296875 -5.26171875 C43.40718963 -6.9829101 48.11386079 -7.61652862 53.48046875 -7.57421875 C54.22296875 -7.5693042 54.96546875 -7.56438965 55.73046875 -7.55932617 C68.21788575 -7.29647575 79.33299838 -3.51194709 88.6640625 4.953125 C98.44181459 15.66879096 99.73057538 28.07373902 99.70365906 41.93521118 C99.69912889 44.47618134 99.71332524 47.01647396 99.73205566 49.55737305 C99.77478584 55.86377665 99.78604978 62.1701617 99.79827881 68.47668457 C99.80986278 73.82083643 99.83357674 79.16467616 99.87297058 84.50869751 C99.88642121 86.99576469 99.88239293 89.48239392 99.87756348 91.96948242 C99.70770908 105.43506015 99.70770908 105.43506015 105.35546875 117.23828125 C109.50368672 119.35652021 113.71142444 120.06216986 118.29296875 120.73828125 C118.29296875 123.04828125 118.29296875 125.35828125 118.29296875 127.73828125 C115.14731829 127.82673141 112.001995 127.8791496 108.85546875 127.92578125 C107.97697266 127.95091797 107.09847656 127.97605469 106.19335938 128.00195312 C99.34267729 128.07779093 92.70234575 127.444435 87.171875 123.0546875 C86.73746094 122.47589844 86.30304688 121.89710938 85.85546875 121.30078125 C85.40300781 120.72457031 84.95054687 120.14835937 84.484375 119.5546875 C81.54835645 115.0784625 81.04291531 112.0296451 81.03759766 106.59326172 C81.03216698 105.52384842 81.03216698 105.52384842 81.02662659 104.43283081 C81.01974089 102.88544873 81.0172256 101.33804241 81.01857376 99.7906456 C81.01954376 97.32365551 81.00653407 94.85709565 80.98959351 92.39016724 C80.94351362 85.37586972 80.91879725 78.36161164 80.91210938 71.34716797 C80.90702569 67.04996535 80.88242091 62.75320238 80.84678268 58.45615005 C80.83712585 56.83547766 80.83457353 55.21474359 80.83995438 53.59405136 C80.98223994 31.9760498 80.98223994 31.9760498 72.02734375 13.15234375 C65.2694714 7.64254692 58.53142325 7.09332666 49.94921875 7.359375 C41.02726071 8.28397963 34.24680035 12.06588377 28.29296875 18.73828125 C19.25928272 30.61590548 17.67255799 43.93486316 17.76171875 58.36328125 C17.7590165 59.92456299 17.75512803 61.48584308 17.75012207 63.04711914 C17.7442753 66.29118146 17.75264128 69.53479861 17.77148438 72.77880859 C17.79442527 76.92937032 17.78102632 81.07890576 17.75719452 85.22943115 C17.74273495 88.44142391 17.7473405 91.65317323 17.75770569 94.86517334 C17.76036467 96.39613977 17.75713246 97.92712863 17.74778748 99.45806885 C17.73760135 101.59243494 17.75314112 103.72513298 17.77539062 105.859375 C17.778573 107.07036865 17.78175537 108.2813623 17.78503418 109.52905273 C18.39246235 113.36690097 19.57214417 115.01141349 22.29296875 117.73828125 C26.50356238 119.60965619 30.73653824 120.19150959 35.29296875 120.73828125 C35.29296875 123.04828125 35.29296875 125.35828125 35.29296875 127.73828125 C17.47296875 127.73828125 -0.34703125 127.73828125 -18.70703125 127.73828125 C-18.70703125 125.42828125 -18.70703125 123.11828125 -18.70703125 120.73828125 C-18.0315625 120.60550781 -17.35609375 120.47273438 -16.66015625 120.3359375 C-15.32210937 120.07103516 -15.32210937 120.07103516 -13.95703125 119.80078125 C-13.0753125 119.62675781 -12.19359375 119.45273437 -11.28515625 119.2734375 C-10.00898438 119.00853516 -10.00898438 119.00853516 -8.70703125 118.73828125 C-7.98 118.67511719 -7.25296875 118.61195313 -6.50390625 118.546875 C-4.40952479 117.84892516 -4.40952479 117.84892516 -3.6118927 115.15919495 C-2.60937382 111.36907818 -2.44610283 108.11477755 -2.43237305 104.19506836 C-2.42470665 103.09853943 -2.42470665 103.09853943 -2.41688538 101.9798584 C-2.40304468 99.57502936 -2.40394314 97.17048903 -2.40625 94.765625 C-2.40235766 93.07898352 -2.39802188 91.392343 -2.39326477 89.70570374 C-2.38581263 86.17103908 -2.38608478 82.63647429 -2.39135742 79.10180664 C-2.39712512 74.60563512 -2.38028193 70.10987918 -2.35701275 65.61377621 C-2.34216243 62.12785002 -2.34141937 58.64202103 -2.34452248 55.1560688 C-2.34401407 53.50052638 -2.33886819 51.84497781 -2.32871056 50.18946648 C-2.22133549 30.75146294 -2.22133549 30.75146294 -10.70703125 13.73828125 C-13.14311918 11.35439209 -13.14311918 11.35439209 -15.70703125 9.73828125 C-16.23683594 9.3825 -16.76664062 9.02671875 -17.3125 8.66015625 C-20.98620894 7.24580827 -24.55376685 7.36965913 -28.45703125 7.36328125 C-29.23046875 7.33878906 -30.00390625 7.31429687 -30.80078125 7.2890625 C-38.90307278 7.24827915 -45.10850994 10.53421182 -51.046875 15.91796875 C-63.46478909 29.53384632 -65.01168033 47.59072628 -65.04296875 65.140625 C-65.04941871 66.47530755 -65.05614857 67.80998876 -65.06314087 69.14466858 C-65.07499063 71.9136178 -65.07883356 74.6824433 -65.07763672 77.45141602 C-65.07743186 80.98754088 -65.10495854 84.52287714 -65.13918114 88.05881405 C-65.16679166 91.46109639 -65.16559692 94.86323214 -65.16796875 98.265625 C-65.18233978 99.52817612 -65.19671082 100.79072723 -65.21151733 102.09153748 C-65.21010059 110.73324675 -65.21010059 110.73324675 -60.70703125 117.73828125 C-56.93566169 119.8787883 -52.97815218 120.23579643 -48.70703125 120.73828125 C-48.70703125 123.04828125 -48.70703125 125.35828125 -48.70703125 127.73828125 C-67.84703125 127.73828125 -86.98703125 127.73828125 -106.70703125 127.73828125 C-106.70703125 125.42828125 -106.70703125 123.11828125 -106.70703125 120.73828125 C-105.68222656 120.65191406 -104.65742188 120.56554687 -103.6015625 120.4765625 C-102.24076544 120.33579039 -100.88009417 120.19379856 -99.51953125 120.05078125 C-98.50922852 119.97053711 -98.50922852 119.97053711 -97.47851562 119.88867188 C-93.67500678 119.46193674 -91.76728368 118.78759331 -88.78125 116.34375 C-86.19302335 113.09262538 -85.58359438 110.76490108 -85.56658936 106.72866821 C-85.56087921 105.91559708 -85.55516907 105.10252594 -85.54928589 104.26481628 C-85.54816803 103.3764357 -85.54705017 102.48805511 -85.54589844 101.57275391 C-85.54093353 100.63425095 -85.53596863 99.69574799 -85.53085327 98.72880554 C-85.51623215 95.61997752 -85.50943002 92.51120052 -85.50390625 89.40234375 C-85.49815514 87.2438456 -85.4923974 85.08534748 -85.4866333 82.92684937 C-85.47612372 78.39914715 -85.47028064 73.8714627 -85.46679688 69.34375 C-85.46130964 63.54079411 -85.4372764 57.73807256 -85.40882492 51.9351902 C-85.39020673 47.47595533 -85.38499339 43.01677702 -85.383461 38.55750656 C-85.38043253 36.41807142 -85.3723975 34.27863731 -85.35927582 32.13924026 C-85.34223129 29.14684426 -85.34409169 26.15502244 -85.35058594 23.16259766 C-85.34137115 22.27826553 -85.33215637 21.39393341 -85.32266235 20.48280334 C-85.35483031 15.75385243 -85.59819011 12.56043191 -88.70703125 8.73828125 C-92.50743426 6.59850339 -96.21382703 6.37423302 -100.51953125 6.11328125 C-101.68097656 6.03851563 -102.84242188 5.96375 -104.0390625 5.88671875 C-104.91949219 5.83773437 -105.79992187 5.78875 -106.70703125 5.73828125 C-106.70703125 3.09828125 -106.70703125 0.45828125 -106.70703125 -2.26171875 C-102.56133425 -2.34967555 -98.41588113 -2.40243028 -94.26953125 -2.44921875 C-93.10486328 -2.47435547 -91.94019531 -2.49949219 -90.74023438 -2.52539062 C-82.92840192 -2.59140611 -75.40012762 -2.48134122 -69.26953125 2.86328125 C-67.1926408 6.68475968 -66.41332835 10.4726185 -65.70703125 14.73828125 C-65.36671875 14.24199219 -65.02640625 13.74570313 -64.67578125 13.234375 C-57.70050643 3.4578595 -49.28721183 -2.91369775 -37.8515625 -6.91015625 C-24.60447556 -9.08180985 -11.35297372 -7.27384485 0 0 Z " fill="#585A60" transform="translate(358.70703125,233.26171875)"/>
<path d="M0 0 C3.63535452 0.47833612 6.9694926 1.29114697 10.4375 2.4375 C25.73451963 7.04005154 41.51423364 6.1477146 57.29614258 5.80810547 C60.29510842 5.74789384 63.29359411 5.71227243 66.29296875 5.6796875 C67.20958786 5.65276825 68.12620697 5.625849 69.07060242 5.59811401 C75.32113353 5.54855147 75.32113353 5.54855147 78.49536133 7.65942383 C80.23141567 10.35998411 81.02207593 12.64884021 81.78125 15.76953125 C82.06387695 16.89810547 82.34650391 18.02667969 82.63769531 19.18945312 C83.06453613 20.98286133 83.06453613 20.98286133 83.5 22.8125 C84.1087911 25.27748803 84.71816125 27.74233313 85.328125 30.20703125 C85.61623047 31.38861816 85.90433594 32.57020508 86.20117188 33.78759766 C87.13720415 37.5517519 88.18341028 41.27103826 89.25 45 C92.29721158 56.4139089 96.18412995 71.20141565 94 83 C90.88041712 85.07972192 90.29970714 85.24155371 86.7824707 85.16357422 C85.93340652 85.15051239 85.08434235 85.13745056 84.20954895 85.12399292 C83.29090561 85.10112213 82.37226227 85.07825134 81.42578125 85.0546875 C79.45768992 85.02934838 77.48959052 85.00463004 75.52148438 84.98046875 C72.43683309 84.93131678 69.35261076 84.87588141 66.26831055 84.80810547 C44.14110029 84.35261382 21.78825179 87.36583191 4.75 102.9375 C2 105 2 105 -0.27734375 104.9765625 C-4.04435489 103.62541073 -6.49987774 101.17926805 -9.3125 98.4375 C-9.88645508 97.88956787 -10.46041016 97.34163574 -11.05175781 96.77709961 C-12.19376072 95.68351119 -13.33173548 94.58569836 -14.46533203 93.48339844 C-15.72753695 92.26336072 -17.01481895 91.06932001 -18.30859375 89.8828125 C-27.04049368 81.69555824 -32.96869665 71.42774937 -38.625 61 C-39.07536621 60.18684326 -39.52573242 59.37368652 -39.98974609 58.53588867 C-40.39789551 57.76092041 -40.80604492 56.98595215 -41.2265625 56.1875 C-41.59346191 55.50042969 -41.96036133 54.81335938 -42.33837891 54.10546875 C-43.26490578 51.15699357 -43.11791404 49.91642478 -42 47 C-39.98930496 44.4633562 -37.69559185 42.25505794 -35.3671875 40.01171875 C-34.69712677 39.34968948 -34.02706604 38.68766022 -33.33670044 38.00556946 C-31.19205154 35.88988884 -29.0342627 33.78825458 -26.875 31.6875 C-24.73973043 29.59500349 -22.60736974 27.49962849 -20.47756958 25.40156555 C-19.15340202 24.09875872 -17.82572789 22.79950221 -16.49386597 21.50456238 C-9.73113978 14.88420066 -3.88766617 8.70837222 0 0 Z " fill="#FEFEFE" transform="translate(109,87)"/>
<path d="M0 0 C3.63 0 7.26 0 11 0 C11 8.25 11 16.5 11 25 C28.6283804 25.56765437 28.6283804 25.56765437 44.0546875 18.88671875 C44.69664062 18.26410156 45.33859375 17.64148438 46 17 C52.21428571 17.21428571 52.21428571 17.21428571 55 20 C55.53992408 24.62792065 55.74725214 27.62811519 52.8125 31.375 C41.71241312 41.73508108 25.3713728 36 11 36 C11 60.09 11 84.18 11 109 C15.29 109 19.58 109 24 109 C35.51710921 110.56405187 46.0641687 114.24450537 54 123 C57.7013493 128.89902544 57.9200298 135.22605509 57 142 C54.87950697 148.41502689 50.37217224 151.50604877 44.6953125 154.7734375 C35.43526555 158.98742988 24.24113832 159.94214825 14.47265625 156.90234375 C4.39363002 152.13609553 -1.07859325 146.40482609 -5.06640625 136.0234375 C-6.32164852 131.95834327 -6.78785017 128.24299662 -7 124 C-9.23590266 125.04987581 -11.46291713 126.11409987 -13.6875 127.1875 C-14.31333984 127.47947266 -14.93917969 127.77144531 -15.58398438 128.07226562 C-19.84320302 130.14612601 -22.68893604 132.5457549 -26 136 C-26.66 136 -27.32 136 -28 136 C-28.26167969 136.55816406 -28.52335938 137.11632812 -28.79296875 137.69140625 C-30.12974808 140.24815895 -31.6932218 142.5498725 -33.3125 144.9375 C-44.06060698 161.79859283 -46.43647806 181.46842135 -42.1640625 200.8359375 C-38.37356317 215.6558824 -29.07033967 228.95873182 -16 237 C-8.54768685 240.86598278 -1.87363621 241.6214043 6.4375 241.5 C7.49259766 241.51546875 8.54769531 241.5309375 9.63476562 241.546875 C21.21198263 241.48987947 30.61262594 238.05606406 39 230 C41.35298207 227.19727898 42.83495558 224.49513326 44 221 C47.9990906 221.23071677 50.33396421 221.43643125 53.4375 224.0625 C55.44528036 227.83712707 55.86064622 230.87194469 55 235 C52.41498234 241.45658789 48.20340612 245.12572291 42 248 C29.83037395 253.01269311 19.3424323 254.20837161 6.3125 254.3125 C5.12205078 254.34150391 3.93160156 254.37050781 2.70507812 254.40039062 C-13.73338627 254.5165951 -27.80185128 248.64315849 -39.66015625 237.328125 C-40.81837891 236.17570312 -40.81837891 236.17570312 -42 235 C-43.04994141 234.00226563 -43.04994141 234.00226563 -44.12109375 232.984375 C-58.10260716 218.70306306 -61.17004243 200.54029138 -61.3125 181.375 C-61.34150391 180.09753906 -61.37050781 178.82007813 -61.40039062 177.50390625 C-61.51612875 159.92951676 -55.64850333 143.06119329 -43.46826172 130.20239258 C-33.3327519 120.09591944 -21.25398318 113.03628331 -7 111 C-7 86.25 -7 61.5 -7 36 C-13.93 36 -20.86 36 -28 36 C-28 27 -28 27 -26 25 C-24.11598973 24.63977952 -22.21629983 24.35909333 -20.3125 24.125 C-14.16467675 23.14693721 -9.51953747 22.29426156 -5.5390625 17.08984375 C-2.19793851 11.61464924 -0.97582453 6.29850377 0 0 Z " fill="#585A60" transform="translate(775,206)"/>
<path d="M0 0 C10.75099365 8.22344217 17.89487691 19.41765053 20.359375 32.8046875 C22.04225656 48.08687233 18.79162496 61.45982048 9.359375 73.8046875 C1.13844888 83.64928926 -10.88062551 90.80498609 -23.640625 92.8046875 C-39.94887481 93.86340035 -53.32015953 90.23182526 -65.890625 79.6171875 C-75.05243085 70.97974574 -81.39413247 59.79016668 -81.87890625 47.109375 C-82.26034475 28.43778878 -82.26034475 28.43778878 -77.640625 19.8046875 C-77.228125 18.97195313 -76.815625 18.13921875 -76.390625 17.28125 C-69.56615185 4.67923992 -58.45691699 -4.36575491 -44.84375 -8.65234375 C-28.60996627 -12.65322307 -13.67091168 -9.42403083 0 0 Z " fill="#57595E" transform="translate(1066.640625,261.1953125)"/>
<path d="M0 0 C0.72045181 -0.00523668 1.44090362 -0.01047336 2.18318731 -0.01586872 C4.57411232 -0.03075483 6.96482119 -0.03157134 9.35578918 -0.03224182 C11.07970028 -0.03987105 12.80360798 -0.04829985 14.5275116 -0.0574646 C19.19512391 -0.07934261 23.86267073 -0.0881996 28.53032851 -0.09329104 C31.45185027 -0.09694289 34.3733551 -0.10318727 37.29487038 -0.11029243 C47.50252149 -0.13476475 57.71012196 -0.1478338 67.9178009 -0.15138245 C77.40748013 -0.15501483 86.89683538 -0.18489464 96.38641566 -0.22678703 C104.55402732 -0.26156937 112.72153203 -0.27693227 120.8892172 -0.27762848 C125.75834425 -0.27841866 130.62714102 -0.2870374 135.49619102 -0.31562614 C140.08055706 -0.34194299 144.66432213 -0.34393667 149.24872971 -0.3279705 C150.92196153 -0.32616673 152.59522902 -0.33274887 154.26838493 -0.34878922 C165.10294049 -0.44624496 177.14576474 -0.16828712 185.53083801 7.83665466 C186.14958801 8.64102966 186.76833801 9.44540466 187.40583801 10.27415466 C187.92790833 10.85681091 188.44997864 11.43946716 188.98786926 12.03977966 C191.88135014 16.59920408 191.12759656 22.10660604 190.40583801 27.27415466 C187.89967792 33.91793592 183.14291631 37.87678248 176.99177551 41.16477966 C173.09784393 42.83528808 169.65495519 44.04311803 165.40583801 43.27415466 C163.37311814 41.97038147 161.8391392 40.59306887 160.20661926 38.81712341 C155.99237542 35.20622034 150.86168027 35.01979946 145.52790833 34.98704529 C144.8665387 34.98021225 144.20516907 34.97337921 143.52375793 34.96633911 C142.09322215 34.95280735 140.66263877 34.94371807 139.23204803 34.93862915 C136.93912763 34.93024064 134.64658711 34.90963034 132.35377502 34.88609314 C127.45452086 34.83800282 122.55522576 34.80518026 117.65583801 34.77415466 C81.11450175 34.53904743 81.11450175 34.53904743 65.83161926 33.37962341 C64.83595947 33.30461609 63.84029968 33.22960876 62.81446838 33.15232849 C54.14493403 32.40889167 45.6818166 30.81085312 37.18318176 28.98118591 C31.22341212 27.88840003 25.73352658 28.11031038 20.28083801 30.83665466 C17.76671147 32.96819673 16.00671622 34.9705323 13.96833801 37.52415466 C11.54028866 40.34536736 10.68698892 41.18564419 7.03083801 42.33665466 C1.08622477 40.59426802 -2.05933806 37.29190987 -5.59416199 32.27415466 C-10.26667659 23.41187249 -15.59416199 12.42789301 -15.59416199 2.27415466 C-10.24849619 0.78379273 -5.58895439 0.02028999 0 0 Z " fill="#222426" transform="translate(518.5941619873047,363.72584533691406)"/>
<path d="M0 0 C7.37650235 5.86600584 11.60632902 14.27452278 13.8125 23.3125 C14.07818022 25.9423246 14.28120225 28.51832298 14.40478516 31.15356445 C14.44371698 31.89585706 14.48264881 32.63814966 14.52276039 33.40293598 C14.87022305 40.5020712 14.97647912 47.59842261 15.01173019 54.70503807 C15.02384465 56.93025428 15.04335198 59.15530288 15.06484985 61.38044739 C15.12550181 67.69148238 15.1807545 74.00247479 15.21386719 80.3137207 C15.23483658 84.2108753 15.27011133 88.10767923 15.31462479 92.00463295 C15.32871447 93.47611695 15.33749122 94.94766243 15.34067917 96.41921043 C15.34560313 98.46889566 15.36878209 100.51764486 15.39599609 102.56713867 C15.40408295 103.72831711 15.4121698 104.88949554 15.42050171 106.08586121 C15.96313725 110.55243395 17.42396276 113.96771919 20.671875 117.11328125 C23.14741592 118.50012626 25.27038796 119.02240189 28.0625 119.5 C28.95453125 119.65855469 29.8465625 119.81710937 30.765625 119.98046875 C31.44109375 120.09003906 32.1165625 120.19960938 32.8125 120.3125 C32.8125 122.9525 32.8125 125.5925 32.8125 128.3125 C9.66011874 129.10579225 9.66011874 129.10579225 1.3125 123.25 C-4.78785882 116.08207839 -5.77106838 108.18034463 -5.578125 99.0546875 C-5.57246521 98.02562286 -5.56680542 96.99655823 -5.56097412 95.93630981 C-5.53878703 92.68621026 -5.48862415 89.43725989 -5.4375 86.1875 C-5.41741216 83.96876605 -5.39916542 81.75001462 -5.3828125 79.53125 C-5.33898064 74.12461545 -5.27224869 68.71863986 -5.1875 63.3125 C-9.73713965 63.38261962 -14.28596525 63.47113395 -18.83496094 63.57495117 C-20.37458058 63.60770564 -21.91430611 63.63588174 -23.45410156 63.65893555 C-46.83051818 63.83032222 -46.83051818 63.83032222 -67.0546875 74.015625 C-73.23376415 80.81556581 -73.71814446 87.55226946 -73.50390625 96.41015625 C-73.00384247 102.57760956 -71.36685442 106.13314558 -66.9375 110.5625 C-66.03 111.14 -65.1225 111.7175 -64.1875 112.3125 C-63.39279297 112.869375 -63.39279297 112.869375 -62.58203125 113.4375 C-55.46723486 117.80650077 -46.97254142 117.42682471 -39.05078125 115.58203125 C-33.24311089 113.64085903 -27.07202131 111.08154263 -24.1875 105.3125 C-20.53433329 106.56226756 -19.40684164 106.98348753 -17.1875 110.3125 C-16.63367649 115.1386763 -16.62103814 117.29677528 -19 121.5625 C-24.53193402 127.37974866 -34.47918246 129.26369076 -42.2265625 129.48046875 C-59.24731334 129.65471734 -73.42263231 127.6573111 -86.34765625 115.38671875 C-93.34575538 107.49714202 -94.71196481 97.3988902 -94.5703125 87.1796875 C-93.75038881 78.89678496 -90.30390297 71.03000712 -84.1875 65.3125 C-65.58312778 51.65321213 -44.63394802 49.95056094 -22.3125 50.1875 C-20.64193252 50.1975617 -18.97135909 50.20668185 -17.30078125 50.21484375 C-13.26287022 50.23657742 -9.22525348 50.27092643 -5.1875 50.3125 C-5.26859802 45.77011452 -5.38142752 41.22904961 -5.5 36.6875 C-5.52255859 35.40230469 -5.54511719 34.11710937 -5.56835938 32.79296875 C-5.60380859 31.54902344 -5.63925781 30.30507813 -5.67578125 29.0234375 C-5.70196533 27.88181152 -5.72814941 26.74018555 -5.75512695 25.56396484 C-6.54157666 19.64982754 -9.53607631 15.84530182 -13.1875 11.3125 C-13.1875 10.6525 -13.1875 9.9925 -13.1875 9.3125 C-14.83456275 8.59877281 -16.50951212 7.95013539 -18.1875 7.3125 C-18.86941406 7.04824219 -19.55132813 6.78398437 -20.25390625 6.51171875 C-30.88762734 2.81531817 -42.75519669 2.9381956 -53.1875 7.3125 C-59.17435234 10.60321849 -63.51194413 14.99859354 -66.1875 21.3125 C-67.41079854 25.60884284 -68.36448382 29.92308038 -69.1875 34.3125 C-73.40624554 34.51872359 -74.81612951 34.56246091 -78.4375 32.125 C-82.4225381 28.04939285 -83.28872545 25.14120855 -83.625 19.5625 C-83.44543449 12.84874526 -80.96769425 8.08155119 -76.23828125 3.37109375 C-55.66889221 -13.72698009 -22.03280743 -15.07727087 0 0 Z " fill="#595A60" transform="translate(595.1875,233.6875)"/>
<path d="M0 0 C2.93244298 1.40876727 5.75504061 2.93364401 8.58251953 4.54248047 C9.59024414 5.09242676 10.59796875 5.64237305 11.63623047 6.20898438 C14.48770641 7.77393116 17.31960193 9.36856389 20.14501953 10.97998047 C20.81871582 11.36234863 21.49241211 11.7447168 22.18652344 12.13867188 C24.68402316 13.56349582 27.16368088 15.01518081 29.63330078 16.48779297 C37.23541383 21.00413385 45.12040445 25.01686134 52.95751953 29.10498047 C62.42891695 34.04620756 71.8230749 39.12071185 81.19189453 44.25341797 C82.01882813 44.70426758 82.84576172 45.15511719 83.69775391 45.61962891 C85.34778903 46.5368272 86.98453459 47.4782969 88.60791016 48.44189453 C89.77870117 49.12977051 89.77870117 49.12977051 90.97314453 49.83154297 C91.65795898 50.24484863 92.34277344 50.6581543 93.04833984 51.08398438 C95.5967045 52.17300374 97.39968195 52.28104909 100.14501953 51.97998047 C101.13501953 50.98998047 101.13501953 50.98998047 102.14501953 49.97998047 C105.37873983 50.18638815 107.43898254 50.34959029 109.89501953 52.54248047 C110.30751953 53.01685547 110.72001953 53.49123047 111.14501953 53.97998047 C111.80501953 53.97998047 112.46501953 53.97998047 113.14501953 53.97998047 C114.53451624 52.21016892 115.85575577 50.3865881 117.14501953 48.54248047 C124.72497779 38.12234321 134.02796935 31.26156574 145.14501953 24.97998047 C145.84755859 24.58294922 146.55009766 24.18591797 147.27392578 23.77685547 C150.66279351 22.33357986 153.48815238 22.68975292 157.14501953 22.97998047 C159.14501953 24.04248047 159.14501953 24.04248047 160.14501953 25.97998047 C160.64501953 29.41748047 160.64501953 29.41748047 160.14501953 32.97998047 C157.34808142 36.16270315 153.72497363 37.72754742 150.02001953 39.66748047 C133.69486544 48.4562579 122.63322944 62.74397002 117.27001953 80.47998047 C114.53438844 92.96232115 115.0147614 106.00765365 119.27001953 118.03466797 C120.21120501 121.20276553 120.41428819 123.69304582 120.14501953 126.97998047 C118.52001953 129.35498047 118.52001953 129.35498047 116.14501953 130.97998047 C113.14501953 131.54248047 113.14501953 131.54248047 110.14501953 130.97998047 C106.72291985 127.43403337 105.29219857 124.11881928 103.95751953 119.41748047 C103.63396484 118.30244141 103.31041016 117.18740234 102.97705078 116.03857422 C102.70248047 115.02923828 102.42791016 114.01990234 102.14501953 112.97998047 C101.96632324 112.35696045 101.78762695 111.73394043 101.60351562 111.09204102 C100.69684786 106.91547934 100.96034578 102.61130521 100.95751953 98.35498047 C100.94527344 97.40751953 100.93302734 96.46005859 100.92041016 95.48388672 C100.90728277 89.08647173 101.64612494 83.19805765 103.14501953 76.97998047 C102.21689453 77.02123047 101.28876953 77.06248047 100.33251953 77.10498047 C97.14501953 76.97998047 97.14501953 76.97998047 94.14501953 74.97998047 C93.88076172 73.83529297 93.61650391 72.69060547 93.34423828 71.51123047 C92.51923133 67.80391342 92.51923133 67.80391342 89.47705078 66.44873047 C88.31560547 66.12904297 87.15416016 65.80935547 85.95751953 65.47998047 C85.31041016 65.29113281 84.66330078 65.10228516 83.99658203 64.90771484 C82.53714487 64.48283249 81.07411508 64.07016716 79.60839844 63.66748047 C75.9284069 62.64043823 72.28058041 61.51230013 68.62768555 60.39331055 C66.63323721 59.78258523 64.63761765 59.17567224 62.64086914 58.57250977 C56.01310517 56.57011621 49.436929 54.46411402 42.88720703 52.21826172 C34.65806545 49.49525767 26.34458034 47.03556131 18.04345703 44.54248047 C15.91876514 43.90354096 13.79409333 43.26453473 11.66943359 42.62548828 C10.23320605 42.19416324 8.79668059 41.763829 7.35986328 41.33447266 C0.5042681 39.28463726 -6.34930419 37.22144477 -13.12451172 34.91748047 C-13.95055908 34.63775391 -14.77660645 34.35802734 -15.62768555 34.06982422 C-20.88423664 31.49772688 -24.60840144 26.2881765 -26.85498047 20.97998047 C-27.4884027 14.64575815 -26.47863653 10.25714949 -22.85498047 4.97998047 C-16.21814842 -1.32500998 -8.77249644 -3.13421328 0 0 Z " fill="#C51920" transform="translate(857.85498046875,207.02001953125)"/>
<path d="M0 0 C2.83392926 -0.08174796 5.66544819 -0.14084985 8.5 -0.1875 C9.29148437 -0.21263672 10.08296875 -0.23777344 10.8984375 -0.26367188 C16.62713386 -0.33410667 20.77500573 0.61291744 26 3 C28.68284735 5.68284735 28.9346018 7.68546379 29.12025452 11.41717529 C29.1169236 12.76286591 29.1169236 12.76286591 29.11352539 14.13574219 C29.11344986 15.15649841 29.11337433 16.17725464 29.11329651 17.22894287 C29.10813522 18.32386047 29.10297394 19.41877808 29.09765625 20.546875 C29.0962413 21.6732135 29.09482635 22.799552 29.09336853 23.96002197 C29.08777199 27.55670835 29.0752201 31.15333244 29.0625 34.75 C29.05748455 37.18880118 29.05292172 39.62760334 29.04882812 42.06640625 C29.0378037 48.04429208 29.02106898 54.02214159 29 60 C29.77923828 59.21375244 30.55847656 58.42750488 31.36132812 57.61743164 C40.60775503 48.44543471 51.13534323 43.90262135 64.1875 43.5625 C74.99185194 43.93341352 84.85515906 47.21738126 92.85546875 54.74609375 C100.26707702 63.54852233 100.42669213 75.21266344 100.1875 86.17578125 C100.17614014 87.38517868 100.16478027 88.59457611 100.15307617 89.84062195 C100.11675263 93.6649253 100.06085536 97.4885134 100 101.3125 C99.92005262 106.37107558 99.86020759 111.42931048 99.8125 116.48828125 C99.78760498 117.63943924 99.76270996 118.79059723 99.73706055 119.97663879 C99.680717 126.12801965 99.98081709 130.58666969 103 136 C104.8956539 137.8956539 108.29489028 137.36630149 110.87109375 137.5234375 C113 138 113 138 115 141 C115 142.32 115 143.64 115 145 C111.79197767 145.11698258 108.58450975 145.18750607 105.375 145.25 C104.01955078 145.30027344 104.01955078 145.30027344 102.63671875 145.3515625 C96.88836728 145.43548004 93.49451656 144.95517458 89 141 C82.99519885 133.96511554 83.73894699 124.20634979 83.91015625 115.4375 C83.93057162 113.23698132 83.95074662 111.03646039 83.97070312 108.8359375 C84.0141653 105.4129842 84.06265421 101.99018934 84.11645508 98.56738281 C84.16502006 95.23242772 84.19469073 91.89768241 84.22265625 88.5625 C84.24441422 87.55179443 84.26617218 86.54108887 84.28858948 85.49975586 C84.35044993 76.53814821 82.88466469 68.06159763 77 61 C70.13201974 55.70593188 64.12077493 55.35737131 55.73046875 56.23828125 C49.57406921 57.30567802 44.45285904 59.55526661 40 64 C30.55680269 77.96348749 29.48458368 93.69150412 29.60888672 110.03735352 C29.62518304 112.59118401 29.60883102 115.1434784 29.58984375 117.69726562 C29.59182304 119.34114928 29.5956602 120.985032 29.6015625 122.62890625 C29.59548981 123.38208633 29.58941711 124.13526642 29.5831604 124.91127014 C29.64607799 129.6479459 30.33975256 133.04558847 33 137 C36.51944126 137.82432642 36.51944126 137.82432642 40 138 C42 140 42 140 42 145 C28.14 145 14.28 145 0 145 C0 139 0 139 1 138 C3.01594582 137.76572222 5.038474 137.58663876 7.0625 137.4375 C8.16722656 137.35371094 9.27195312 137.26992188 10.41015625 137.18359375 C11.26480469 137.12300781 12.11945312 137.06242188 13 137 C13.89770927 133.91890614 14.13166935 131.15677173 14.14717102 127.95227051 C14.15432632 126.93443985 14.16148163 125.91660919 14.16885376 124.86793518 C14.17154266 123.7571611 14.17423157 122.64638702 14.17700195 121.50195312 C14.18357315 120.32761215 14.19014435 119.15327118 14.19691467 117.94334412 C14.21663241 114.05598599 14.228307 110.16864137 14.23828125 106.28125 C14.24233022 104.94157389 14.24644718 103.60189798 14.25063133 102.26222229 C14.26966459 95.97139793 14.28390305 89.68058521 14.2922433 83.38973761 C14.3020281 76.12977553 14.32838735 68.87011734 14.36874419 61.61026239 C14.3988842 55.99572569 14.41370989 50.38127626 14.41702431 44.76666021 C14.41937601 41.41409137 14.42835212 38.06184788 14.45348549 34.70936584 C14.47771414 30.9720098 14.47694178 27.23545664 14.4699707 23.49804688 C14.48278076 22.3872728 14.49559082 21.27649872 14.50878906 20.13206482 C14.50184525 19.11423416 14.49490143 18.0964035 14.48774719 17.04772949 C14.49013555 16.16431633 14.4925239 15.28090317 14.49498463 14.37071991 C13.83461633 11.20789792 12.47079138 10.01345852 10 8 C7.43843328 7.10438884 7.43843328 7.10438884 4.75 6.75 C3.85796875 6.60046875 2.9659375 6.4509375 2.046875 6.296875 C1.37140625 6.19890625 0.6959375 6.1009375 0 6 C0 4.02 0 2.04 0 0 Z " fill="#5A5C62" transform="translate(848,312)"/>
<path d="M0 0 C4.54325521 3.53364294 7.38641237 8.4092371 9.1875 13.8125 C9.84966647 21.13975195 9.81696938 27.77406167 5.1875 33.8125 C1.94835771 35.97192819 0.93890267 36.08482978 -2.8125 36.0625 C-4.111875 36.07023437 -4.111875 36.07023437 -5.4375 36.078125 C-7.8125 35.8125 -7.8125 35.8125 -10.8125 33.8125 C-10.4825 32.6575 -10.1525 31.5025 -9.8125 30.3125 C-8.06218263 23.17271621 -8.16689728 17.32250485 -11.8125 10.8125 C-17.05600171 7.0653453 -25.66192503 7.94535422 -31.8125 8.8125 C-39.83529383 11.55008285 -44.17926775 18.51892182 -47.8125 25.8125 C-49.69722614 30.41689573 -51.34696534 35.05859625 -52.8125 39.8125 C-52.99367371 40.39548355 -53.17484741 40.9784671 -53.36151123 41.57911682 C-53.97412102 44.6128784 -53.9563047 47.51798825 -53.97363281 50.61303711 C-53.97859772 51.28833969 -53.98356262 51.96364227 -53.98867798 52.65940857 C-54.00324497 54.88623077 -54.01009152 57.1129818 -54.015625 59.33984375 C-54.02137982 60.89156597 -54.02713751 62.44328818 -54.03289795 63.99501038 C-54.04339159 67.245619 -54.04924533 70.496203 -54.05273438 73.74682617 C-54.05822356 77.90752437 -54.08226728 82.06789606 -54.11070633 86.22849178 C-54.12934657 89.4327133 -54.13453898 92.63685625 -54.13607025 95.8411274 C-54.13909288 97.37490186 -54.14710831 98.90867507 -54.16025543 100.44239616 C-54.17734974 102.58937228 -54.17542825 104.73555142 -54.16894531 106.88256836 C-54.17259094 108.10294296 -54.17623657 109.32331757 -54.17999268 110.58067322 C-53.77849438 114.11155432 -52.93562613 115.99171118 -50.8125 118.8125 C-48.37862247 120.02943876 -46.39411154 120.13209896 -43.6875 120.375 C-42.32238281 120.50068359 -42.32238281 120.50068359 -40.9296875 120.62890625 C-40.23101563 120.68949219 -39.53234375 120.75007813 -38.8125 120.8125 C-38.8125 123.4525 -38.8125 126.0925 -38.8125 128.8125 C-56.9625 128.8125 -75.1125 128.8125 -93.8125 128.8125 C-93.8125 126.5025 -93.8125 124.1925 -93.8125 121.8125 C-92.72582031 121.64814453 -92.72582031 121.64814453 -91.6171875 121.48046875 C-86.23169089 120.59724731 -81.5053493 119.77640482 -76.8125 116.8125 C-75.68154629 114.55059258 -75.68229982 113.31951878 -75.67205811 110.80924988 C-75.66634796 109.97231094 -75.66063782 109.13537201 -75.65475464 108.27307129 C-75.65363678 107.35304321 -75.65251892 106.43301514 -75.65136719 105.48510742 C-75.64640228 104.51748978 -75.64143738 103.54987213 -75.63632202 102.55293274 C-75.6216775 99.34127093 -75.61489437 96.12965851 -75.609375 92.91796875 C-75.60362517 90.69078062 -75.59786742 88.46359251 -75.59210205 86.23640442 C-75.58158536 81.56149057 -75.57574715 76.88659395 -75.57226562 72.21166992 C-75.56678131 66.2192389 -75.54275726 60.22703515 -75.51429367 54.23467541 C-75.49567573 49.63218011 -75.49046212 45.02973963 -75.48892975 40.42720985 C-75.48590049 38.21799795 -75.47786282 36.00878708 -75.46474457 33.79961205 C-75.44770294 30.708924 -75.44955994 27.61879205 -75.45605469 24.52807617 C-75.4468399 23.61412079 -75.43762512 22.70016541 -75.4281311 21.7585144 C-75.45977877 16.95439294 -75.66666387 13.70510938 -78.8125 9.8125 C-81.77115257 7.78424132 -84.46513359 7.49540432 -88 7.25 C-92.71313091 6.91186909 -92.71313091 6.91186909 -93.8125 5.8125 C-93.85342937 3.47952567 -93.85491723 1.14544775 -93.8125 -1.1875 C-90.50007688 -1.2463996 -87.18779149 -1.28139398 -83.875 -1.3125 C-82.48571289 -1.33763672 -82.48571289 -1.33763672 -81.06835938 -1.36328125 C-73.63704665 -1.41543081 -66.83641912 -1.09144907 -60.4375 2.9375 C-57.2079916 6.47458063 -56.20079552 9.26197578 -54.8125 13.8125 C-54.37421875 13.17183594 -53.9359375 12.53117187 -53.484375 11.87109375 C-41.27807464 -4.7761167 -18.2551293 -11.59553278 0 0 Z " fill="#5A5B61" transform="translate(734.8125,232.1875)"/>
<path d="M0 0 C4.20675751 2.63172363 5.95319086 5.84635301 7.5 10.5 C8.02055172 14.31140062 7.99085063 18.05703895 7.92578125 21.8984375 C7.92271973 22.9949614 7.9196582 24.09148529 7.91650391 25.22123718 C7.90122822 28.77291273 7.85708721 32.32358269 7.8125 35.875 C7.79755362 38.315665 7.78413266 40.75633981 7.7722168 43.19702148 C7.70362113 53.95204275 7.54072294 64.70063328 7.15625 75.44921875 C7.128228 76.24898132 7.10020599 77.0487439 7.07133484 77.8727417 C6.94020748 81.48732685 6.78686291 85.09867918 6.59301758 88.71044922 C6.53782959 89.95197754 6.4826416 91.19350586 6.42578125 92.47265625 C6.36817627 93.52718994 6.31057129 94.58172363 6.2512207 95.66821289 C6.61581042 99.81823858 8.45254966 102.33616629 11.1875 105.375 C13.18129914 108.60305576 13.01315817 110.77960327 12.5 114.5 C10.33516073 118.27128745 7.53993368 120.87938826 3.5 122.5 C0.05242611 122.93803256 -3.40231752 122.8702429 -6.875 122.875 C-7.80828125 122.89949219 -8.7415625 122.92398438 -9.703125 122.94921875 C-15.47578104 122.97374845 -18.98557404 122.46809415 -23.5 118.5 C-26.15101613 114.43510861 -27.18966174 111.32763217 -26.5 106.5 C-25.46677657 104.7887237 -24.43273497 103.0779029 -23.38708496 101.37419128 C-20.36275798 94.98453583 -22.87714312 84.51073081 -23.42597961 77.69228172 C-23.59750096 75.55881241 -23.76435259 73.42502073 -23.93005371 71.29109192 C-24.40163226 65.22993674 -24.88224809 59.16950306 -25.36376953 53.10913086 C-25.65944694 49.38375019 -25.95052169 45.65803036 -26.23908997 41.93209267 C-26.40167034 39.85157397 -26.56958175 37.77153168 -26.7376709 35.69145203 C-28.76684729 9.51354556 -28.76684729 9.51354556 -22 1.5625 C-16.22474484 -3.20208551 -6.71462107 -2.87046889 0 0 Z " fill="#0F703A" transform="translate(1216.5,183.5)"/>
<path d="M0 0 C6.7427011 4.95786845 11.9853341 10.6606889 16 18 C16.4125 18.72316406 16.825 19.44632812 17.25 20.19140625 C19.91174677 25.65353243 20.37727238 30.76824447 20.4375 36.75 C20.44765137 37.47123047 20.45780273 38.19246094 20.46826172 38.93554688 C20.3906719 43.6608761 19.67915746 47.08385737 17 51 C12.4284213 53.57799108 7.70673904 53.31272898 2.60546875 53.34375 C1.69928299 53.3583728 0.79309723 53.37299561 -0.14054871 53.38806152 C-3.03115451 53.43443829 -5.92169413 53.46869076 -8.8125 53.5 C-12.61092255 53.54136675 -16.40888046 53.59515408 -20.20703125 53.65625 C-21.06875443 53.6615271 -21.9304776 53.6668042 -22.8183136 53.67224121 C-28.20751707 53.75996102 -32.79973669 54.60125795 -38 56 C-39.32 56 -40.64 56 -42 56 C-43.54163175 52.9167365 -43.29747535 50.39121901 -43 47 C-39.19653344 43.06537942 -35.04062579 42.87381127 -29.76524353 42.7598877 C-28.9339241 42.74631226 -28.10260468 42.73273682 -27.24609375 42.71875 C-26.38943619 42.70034058 -25.53277863 42.68193115 -24.65016174 42.66296387 C-20.98312871 42.58427764 -17.31591317 42.51645631 -13.64868164 42.44775391 C-10.97272525 42.39607896 -8.29692879 42.33881753 -5.62109375 42.28125 C-4.37107826 42.26088684 -4.37107826 42.26088684 -3.09580994 42.2401123 C1.08622018 42.25623951 1.08622018 42.25623951 5 41 C5.80690002 30.88685303 4.02401088 22.69513936 -1.890625 14.32421875 C-3.99342606 12.00724351 -5.7493556 10.70068232 -8.5 9.25 C-9.2528125 8.84265625 -10.005625 8.4353125 -10.78125 8.015625 C-18.030734 4.69719922 -26.82627591 4.87341109 -34.25 7.5625 C-43.77521041 11.9434862 -50.16143289 19.40253404 -53.81811523 29.18969727 C-55.83698174 35.3014276 -56.51267083 40.89553609 -56.4375 47.3125 C-56.42992676 48.22676758 -56.42235352 49.14103516 -56.41455078 50.08300781 C-56.12011704 62.25150304 -52.8189573 72.85109315 -44.3046875 81.77734375 C-36.25401437 89.16013592 -28.22823128 89.79631249 -17.75390625 89.47265625 C-9.08071899 88.8557206 -2.59586829 85.12683264 3.1875 78.75 C4.69631424 76.85572227 5.91800029 75.16399943 7 73 C9.64196907 73.37742415 11.10717222 74.07531021 13.3125 75.625 C15 78 15 78 14.9375 81.4375 C13.31474134 87.60398292 10.37396737 91.54128305 5 95 C-7.88829437 101.4549414 -25.88833628 102.37921499 -39.8515625 99.09375 C-42.74917765 97.92571909 -45.33006549 96.6165787 -48 95 C-48.79019531 94.5771875 -49.58039062 94.154375 -50.39453125 93.71875 C-59.9873272 88.09707742 -67.09446791 78.70379955 -70 68 C-74.03488079 51.22902832 -73.87916827 33.3857709 -65.35546875 18.0390625 C-63.69638878 15.54482489 -61.94846303 13.27320687 -60 11 C-59.46632813 10.35675781 -58.93265625 9.71351563 -58.3828125 9.05078125 C-45.62329311 -5.02132028 -16.51395772 -10.51916485 0 0 Z " fill="#585A60" transform="translate(1049,359)"/>
<path d="M0 0 C3.48799506 2.11044059 5.2262584 4.65173554 7.0078125 8.21484375 C7.56248818 13.64426528 7.48566548 17.76319193 4.0078125 22.21484375 C3.0078125 23.21484375 3.0078125 23.21484375 -0.0546875 23.27734375 C-1.0240625 23.25671875 -1.9934375 23.23609375 -2.9921875 23.21484375 C-3.09015625 22.62316406 -3.188125 22.03148437 -3.2890625 21.421875 C-4.23924978 16.40062671 -5.14737521 12.83995248 -8.9921875 9.21484375 C-14.27899439 6.67034315 -19.22809483 6.56967285 -24.9921875 7.21484375 C-30.59484239 9.49740685 -32.48537395 13.36582418 -35.01171875 18.58203125 C-37.34814914 24.8559519 -37.28121268 31.47264975 -37.5546875 38.08984375 C-37.59787109 39.064375 -37.64105469 40.03890625 -37.68554688 41.04296875 C-37.79101024 43.43347177 -37.89312925 45.82406819 -37.9921875 48.21484375 C-36.61498535 48.18342285 -36.61498535 48.18342285 -35.20996094 48.15136719 C-31.79563322 48.08309792 -28.38203307 48.0329999 -24.96728516 47.99511719 C-23.4909316 47.97503074 -22.01465731 47.94775574 -20.53857422 47.91308594 C-18.41353788 47.86443191 -16.28955516 47.84184702 -14.1640625 47.82421875 C-12.8862793 47.80327148 -11.60849609 47.78232422 -10.29199219 47.76074219 C-6.9921875 48.21484375 -6.9921875 48.21484375 -4.54394531 50.02441406 C-2.9921875 52.21484375 -2.9921875 52.21484375 -2.9921875 55.65234375 C-4.06098969 59.45995155 -5.21213887 61.43479512 -7.9921875 64.21484375 C-8.9821875 64.54484375 -9.9721875 64.87484375 -10.9921875 65.21484375 C-11.3015625 64.45171875 -11.6109375 63.68859375 -11.9296875 62.90234375 C-15.00339959 58.89720376 -18.14925588 58.20799136 -22.9921875 57.21484375 C-25.60740947 56.97991133 -28.20088292 56.78192831 -30.8203125 56.63671875 C-31.51205566 56.59466309 -32.20379883 56.55260742 -32.91650391 56.50927734 C-34.60815476 56.40701866 -36.30014245 56.31035812 -37.9921875 56.21484375 C-37.95413223 66.03788671 -37.89477302 75.8605485 -37.80828476 85.68329144 C-37.76879152 90.24452329 -37.73661218 94.80556156 -37.72119141 99.36694336 C-37.70603687 103.76976026 -37.67161308 108.17204502 -37.62387848 112.57462502 C-37.6090522 114.25347071 -37.60114577 115.93239238 -37.60030365 117.61130333 C-37.59793589 119.96499602 -37.5708744 122.31721578 -37.53808594 124.6706543 C-37.5431163 125.36333405 -37.54814667 126.05601379 -37.55332947 126.76968384 C-37.45190959 131.4813585 -36.36141837 133.93177201 -32.9921875 137.21484375 C-30.46108052 137.98641116 -30.46108052 137.98641116 -27.8046875 137.96484375 C-23.04714933 138.15988192 -23.04714933 138.15988192 -21.9921875 139.21484375 C-21.9921875 141.19484375 -21.9921875 143.17484375 -21.9921875 145.21484375 C-37.5021875 145.21484375 -53.0121875 145.21484375 -68.9921875 145.21484375 C-68.9921875 140.21484375 -68.9921875 140.21484375 -66.9921875 138.21484375 C-64.48746981 137.98793553 -62.01441377 137.96423018 -59.5 137.94921875 C-55.68314644 136.83151085 -54.86852953 134.63418567 -52.9921875 131.21484375 C-52.38169009 127.628535 -52.38169009 127.628535 -52.44628906 123.74072266 C-52.43595139 123.01808228 -52.42561371 122.29544189 -52.41496277 121.55090332 C-52.38564815 119.18084045 -52.38403809 116.81163577 -52.3828125 114.44140625 C-52.36782309 112.79086693 -52.35109434 111.14034256 -52.33270264 109.48983765 C-52.28910195 105.15964043 -52.26904632 100.82964552 -52.25396729 96.49926758 C-52.23436982 92.07491123 -52.19240282 87.65077253 -52.15234375 83.2265625 C-52.07712058 74.55604665 -52.02678153 65.88561646 -51.9921875 57.21484375 C-53.13558594 57.22644531 -54.27898437 57.23804688 -55.45703125 57.25 C-56.94791504 57.25937663 -58.43880059 57.26847696 -59.9296875 57.27734375 C-60.68443359 57.28572266 -61.43917969 57.29410156 -62.21679688 57.30273438 C-64.14213063 57.31136816 -66.06754331 57.26708708 -67.9921875 57.21484375 C-68.9921875 56.21484375 -68.9921875 56.21484375 -69.08984375 54.3671875 C-69.05729167 52.31640625 -69.02473958 50.265625 -68.9921875 48.21484375 C-68.24453125 48.10527344 -67.496875 47.99570312 -66.7265625 47.8828125 C-65.74171875 47.72425781 -64.756875 47.56570313 -63.7421875 47.40234375 C-62.76765625 47.25152344 -61.793125 47.10070312 -60.7890625 46.9453125 C-57.79358969 46.16297533 -56.19201187 45.37934984 -53.9921875 43.21484375 C-52.53943085 39.74221155 -52.81420891 35.86897819 -52.6796875 32.15234375 C-52.10923319 21.77460865 -49.27424431 12.83017547 -41.9921875 5.21484375 C-30.63845272 -4.80053329 -13.89654421 -6.12057825 0 0 Z " fill="#595B61" transform="translate(1157.9921875,311.78515625)"/>
<path d="M0 0 C1.07765625 0.00902344 2.1553125 0.01804687 3.265625 0.02734375 C4.08546875 0.03894531 4.9053125 0.05054688 5.75 0.0625 C6.0903125 1.7640625 6.0903125 1.7640625 6.4375 3.5 C7.68561352 9.1848382 9.38155722 14.73126401 11.07299805 20.29663086 C12.75 25.86011773 12.75 25.86011773 12.75 28.0625 C16.51457104 27.09446745 18.12982957 25.79167463 20.1875 22.625 C20.53683594 22.02816406 20.88617187 21.43132812 21.24609375 20.81640625 C24.14440674 17.43629578 27.70508044 16.17096996 32.05908203 15.71899414 C41.3021986 15.89011619 50.43265156 16.53421029 59.625 17.5 C75.93485335 19.17889678 92.09649212 20.11299832 108.49609375 20.23828125 C109.93723615 20.25036712 111.37837791 20.26252891 112.81951904 20.27476501 C121.77526118 20.34842113 121.77526118 20.34842113 130.73120117 20.38842773 C134.42745731 20.39856981 138.12314127 20.42800927 141.81917 20.46974754 C143.20919516 20.48193163 144.59930124 20.48720223 145.98937798 20.48494911 C156.12357264 20.47253592 164.33695318 21.46811117 172.4375 27.875 C175.55952693 30.33625103 175.55952693 30.33625103 179.125 30.25 C185.06221855 28.30504909 190.14623592 25.36791087 193.75 20.1875 C194.08 19.48625 194.41 18.785 194.75 18.0625 C195.08 18.0625 195.41 18.0625 195.75 18.0625 C196.4307189 24.30242325 195.44671171 27.86997208 191.71484375 32.9453125 C186.75745024 38.28707648 180.20515364 42.01371907 172.84375 42.44140625 C169.55530561 41.84629598 167.76553391 40.01479917 165.55078125 37.60546875 C161.3365374 33.99456567 156.20584226 33.80814479 150.87207031 33.77539062 C150.21070068 33.76855759 149.54933105 33.76172455 148.86791992 33.75468445 C147.43738414 33.74115269 146.00680076 33.7320634 144.57621002 33.72697449 C142.28328961 33.71858597 139.99074909 33.69797568 137.69793701 33.67443848 C132.79868285 33.62634816 127.89938775 33.59352559 123 33.5625 C86.45866373 33.32739276 86.45866373 33.32739276 71.17578125 32.16796875 C70.18012146 32.09296143 69.18446167 32.0179541 68.15863037 31.94067383 C59.48909602 31.197237 51.02597859 29.59919846 42.52734375 27.76953125 C36.5675741 26.67674537 31.07768857 26.89865572 25.625 29.625 C23.11087346 31.75654207 21.35087821 33.75887763 19.3125 36.3125 C16.88445065 39.1337127 16.0311509 39.97398953 12.375 41.125 C6.43038675 39.38261336 3.28482393 36.0802552 -0.25 31.0625 C-4.92251461 22.20021783 -10.25 11.21623835 -10.25 1.0625 C-6.78777385 -0.00473961 -3.60960734 -0.03923486 0 0 Z " fill="#070709" transform="translate(513.25,364.9375)"/>
<path d="M0 0 C5.0581824 3.00486083 9.2314161 7.90291347 11.3671875 13.40625 C12.30144267 21.21465639 12.03193028 28.36728056 8.0703125 35.27734375 C4.66947514 39.52839045 0.17004162 42.00482294 -4.6328125 44.40625 C-12.91182669 45.28533887 -19.6113515 45.0901835 -26.57421875 40.25390625 C-29.78309793 37.37383063 -31.78159856 34.27035596 -33.6328125 30.40625 C-34.2825 29.1996875 -34.2825 29.1996875 -34.9453125 27.96875 C-36.87857166 20.76296587 -35.76480674 15.19974799 -32.18359375 8.703125 C-24.51012919 -2.66210714 -12.22157395 -5.33028147 0 0 Z " fill="#F4F4F4" transform="translate(1144.6328125,223.59375)"/>
<path d="M0 0 C8.85246572 -0.49180365 17.00643587 1.27799298 24 7 C27.38407516 10.40796275 30.10011202 13.17236565 31 18 C29.90081184 18.98475214 28.7954398 19.96260473 27.6875 20.9375 C27.07261719 21.48277344 26.45773437 22.02804687 25.82421875 22.58984375 C22.08628974 25.47933491 18.04322316 25.40471318 13.50390625 25.33203125 C10.4530923 24.92747714 8.42256359 23.86910114 6.24609375 21.66796875 C1.29864815 15.0455259 0.302715 8.09762634 0 0 Z " fill="#FAFAFA" transform="translate(786,326)"/>
<path d="M0 0 C5.0581824 3.00486083 9.2314161 7.90291347 11.3671875 13.40625 C12.30144267 21.21465639 12.03193028 28.36728056 8.0703125 35.27734375 C4.66947514 39.52839045 0.17004162 42.00482294 -4.6328125 44.40625 C-12.91182669 45.28533887 -19.6113515 45.0901835 -26.57421875 40.25390625 C-29.78309793 37.37383063 -31.78159856 34.27035596 -33.6328125 30.40625 C-34.2825 29.1996875 -34.2825 29.1996875 -34.9453125 27.96875 C-36.87857166 20.76296587 -35.76480674 15.19974799 -32.18359375 8.703125 C-24.51012919 -2.66210714 -12.22157395 -5.33028147 0 0 Z M-26.9453125 7.71875 C-30.40800951 13.23341561 -32.42609634 17.83332679 -31.6328125 24.40625 C-29.67833832 31.04913547 -26.4601587 35.62050305 -20.6328125 39.40625 C-14.69928063 41.38409396 -7.99428131 41.41456235 -2.2578125 38.78125 C2.40862041 36.08870863 5.64252216 32.58024601 7.3671875 27.40625 C8.03777942 20.40335435 8.42839792 13.88206831 4.0390625 8.0625 C-0.48229988 3.58339334 -5.30453387 1.14854098 -11.6953125 0.84375 C-17.92395278 1.19247636 -22.55242604 3.32586354 -26.9453125 7.71875 Z " fill="#292829" transform="translate(1144.6328125,223.59375)"/>
<path d="M0 0 C0.66 0.33 1.32 0.66 2 1 C2.99 1 3.98 1 5 1 C6.33981486 1.3062434 7.67511887 1.63451555 9 2 C9 2.99 9 3.98 9 5 C7.906875 5.226875 6.81375 5.45375 5.6875 5.6875 C2.00780622 6.65004089 2.00780622 6.65004089 0.29296875 9.01171875 C-1.49373922 13.14111934 -1.44303117 16.66693367 -1.375 21.125 C-1.36919922 22.07189697 -1.36339844 23.01879395 -1.35742188 23.99438477 C-1.06086841 42.01687239 0.61895363 60.03537817 2 78 C1.360625 78.103125 0.72125 78.20625 0.0625 78.3125 C-0.618125 78.539375 -1.29875 78.76625 -2 79 C-2.33 79.99 -2.66 80.98 -3 82 C-4.12233198 79.75533603 -4.21623077 78.29643128 -4.37304688 75.80078125 C-4.45818542 74.49802246 -4.45818542 74.49802246 -4.54504395 73.16894531 C-4.60236694 72.22631836 -4.65968994 71.28369141 -4.71875 70.3125 C-4.78155151 69.34022461 -4.84435303 68.36794922 -4.90905762 67.36621094 C-5.11010701 64.24438501 -5.30537108 61.12223225 -5.5 58 C-5.69549221 54.90639619 -5.89224856 51.81288228 -6.09094238 48.71948242 C-6.21434265 46.793995 -6.33580009 44.86838169 -6.45495605 42.94262695 C-6.79051517 37.65894032 -7.22889142 32.39884738 -7.78668213 27.13381958 C-8.58204918 19.17775952 -8.66973102 12.2129196 -5 5 C-3.44043491 3.10160083 -1.86916745 1.61657725 0 0 Z " fill="#058741" transform="translate(1197,183)"/>
<path d="M0 0 C2.578125 -0.061875 5.15625 -0.12375 7.8125 -0.1875 C9.02450073 -0.22846802 9.02450073 -0.22846802 10.26098633 -0.27026367 C15.50716569 -0.33147239 15.50716569 -0.33147239 17.98046875 1.33203125 C19.64689099 4.05832357 19.49913114 5.88043036 19 9 C16.5 11.875 16.5 11.875 14 14 C14.5053125 14.71027344 15.010625 15.42054688 15.53125 16.15234375 C16.1809375 17.07144531 16.830625 17.99054688 17.5 18.9375 C18.1496875 19.85402344 18.799375 20.77054688 19.46875 21.71484375 C21 24 21 24 21 25 C18.71875 25.30859375 18.71875 25.30859375 16 25 C14.15625 22.84765625 14.15625 22.84765625 12.5 20.0625 C10.93152783 17.28429554 10.93152783 17.28429554 9 15 C7.35 14.67 5.7 14.34 4 14 C4 17.63 4 21.26 4 25 C2.68 25 1.36 25 0 25 C0 16.75 0 8.5 0 0 Z " fill="#292828" transform="translate(1123,233)"/>
<path d="M0 0 C3.375 0.875 3.375 0.875 5.375 2.875 C5.92521834 8.92740175 5.92521834 8.92740175 4.25 11.8125 C1.43987736 13.40490283 -0.45264724 13.32819325 -3.625 12.875 C-6.4162125 10.89177007 -7.45097224 9.74513879 -8.125 6.375 C-7.12928094 1.39640472 -5.01830468 -0.17304499 0 0 Z " fill="#F9F9F9" transform="translate(1036.625,296.125)"/>
<path d="M0 0 C2 2 2 2 2.375 4.4375 C2 7 2 7 0.3125 8.8125 C-2.42827048 10.21992268 -3.95973624 10.46773289 -7 10 C-8.8125 8.8125 -8.8125 8.8125 -10 7 C-10.42674516 4.15503228 -10.36066991 2.63647631 -8.9375 0.125 C-5.82785011 -1.68060316 -3.38260527 -0.79952488 0 0 Z " fill="#A5A5A9" transform="translate(609,367)"/>
<path d="M0 0 C1.9375 1.125 1.9375 1.125 3 3 C2.875 6.0625 2.875 6.0625 2 9 C-1 11 -1 11 -4.0625 10.75 C-7 10 -7 10 -9 8 C-9.36023622 5.19015752 -9.38332602 3.61758081 -7.875 1.1875 C-5.12844028 -0.55198782 -3.18153026 -0.39769128 0 0 Z " fill="#A5A5A8" transform="translate(573,366)"/>
<path d="M0 0 C3.5 0.25 3.5 0.25 5.5 2.25 C5.8125 5.25 5.8125 5.25 5.5 8.25 C2.5 10.25 2.5 10.25 -1.125 9.9375 C-4.5 9.25 -4.5 9.25 -5.5 8.25 C-5.6875 5.3125 -5.6875 5.3125 -5.5 2.25 C-3.5 0.25 -3.5 0.25 0 0 Z " fill="#A9A9AD" transform="translate(534.5,366.75)"/>
<path d="M0 0 C2.06834837 3.10252256 2.3267761 4.24736976 2.6328125 7.83203125 C2.71692383 8.78956299 2.80103516 9.74709473 2.88769531 10.73364258 C2.96600586 11.74966553 3.04431641 12.76568848 3.125 13.8125 C3.2084668 14.84463623 3.29193359 15.87677246 3.37792969 16.94018555 C4.67092062 33.81371722 4.67092062 33.81371722 4 40 C3.34 40.66 2.68 41.32 2 42 C0.5752813 27.95553232 -0.29651826 14.11756362 0 0 Z " fill="#0F723B" transform="translate(1190,199)"/>
<path d="M0 0 C1.45792884 -0.05399736 2.91642712 -0.09279177 4.375 -0.125 C5.18710938 -0.14820313 5.99921875 -0.17140625 6.8359375 -0.1953125 C9 0 9 0 11 2 C11 3.32 11 4.64 11 6 C8.59454362 7.20272819 7.05003047 7.10071472 4.375 7.0625 C3.14910156 7.04896484 3.14910156 7.04896484 1.8984375 7.03515625 C0.95871094 7.01775391 0.95871094 7.01775391 0 7 C0 4.69 0 2.38 0 0 Z " fill="#F8F8F8" transform="translate(1127,236)"/>
<path d="M0 0 C0.66 0.33 1.32 0.66 2 1 C1.1875 2.9375 1.1875 2.9375 0 5 C-0.99 5.33 -1.98 5.66 -3 6 C-3.66 10.29 -4.32 14.58 -5 19 C-5.33 19 -5.66 19 -6 19 C-6.33 20.98 -6.66 22.96 -7 25 C-7.33 25 -7.66 25 -8 25 C-8.69746476 9.500783 -8.69746476 9.500783 -3.6875 3.40234375 C-2.51660375 2.20816263 -1.26497452 1.09403202 0 0 Z " fill="#207D49" transform="translate(1197,183)"/>
<path d="M0 0 C2 3 2 3 2 5 C3.32 4.67 4.64 4.34 6 4 C5.67 4.66 5.34 5.32 5 6 C4.01 6 3.02 6 2 6 C1.67 6.99 1.34 7.98 1 9 C-0.4783226 6.04335481 -0.06032783 3.25770263 0 0 Z " fill="#368A5C" transform="translate(1193,256)"/>
</svg>
